<svg width="2560" height="1014" viewBox="0 0 2560 1014" fill="none" xmlns="http://www.w3.org/2000/svg">
<path d="M1332 458C1273.64 482 1092 365.747 1092 291C1092 221.747 1139.89 163.68 1204.36 148.106C1222.71 87.8444 1278.74 44 1345 44C1374.57 44 1402.11 52.7331 1425.16 67.761C1451.29 27.0068 1496.99 0 1549 0C1596.26 0 1638.31 22.2994 1665.2 56.9497C1670.71 56.3223 1676.32 56 1682 56C1733.41 56 1778.65 82.3886 1804.93 122.359C1828.17 106.965 1856.04 98 1886 98C1912.77 98 1937.87 105.157 1959.49 117.662C1977.99 57.6293 2033.9 14 2100 14C2156.44 14 2205.45 45.8059 2230.08 92.4712C2255.96 69.7654 2289.87 56 2327 56C2372.67 56 2413.47 76.8229 2440.43 109.492C2462.73 95.8576 2488.95 88 2517 88C2562.48 88 2603.13 108.651 2630.1 141.088C2652.25 127.702 2678.23 120 2706 120C2732.25 120 2756.89 126.88 2778.22 138.934C2804.63 113.582 2840.5 98 2880 98C2896.74 98 2912.82 100.797 2927.81 105.949C2945.57 44.7407 3002.06 0 3069 0C3127.58 0 3178.16 34.2698 3201.79 83.8561C3214.86 80.0441 3228.69 78 3243 78C3275.5 78 3305.54 88.5481 3329.88 106.408C3345.24 100.963 3361.77 98 3379 98C3460.19 98 3526 163.814 3526 245C3526 289.967 3505.81 330.218 3474 357.182C3474 357.182 3532 476 3422 556C3312 636 1959.49 508.961 1820 604C1680.51 699.039 1390.36 434 1332 458Z" fill="#E8E9EB"/>
<path d="M-828 551C-886.357 575 -1068 458.747 -1068 384C-1068 314.747 -1020.11 256.68 -955.643 241.106C-937.288 180.844 -881.264 137 -815 137C-785.426 137 -757.892 145.733 -734.836 160.761C-708.705 120.007 -663.007 93 -611 93C-563.743 93 -521.694 115.299 -494.802 149.95C-489.288 149.322 -483.682 149 -478 149C-426.592 149 -381.348 175.389 -355.074 215.359C-331.834 199.965 -303.964 191 -274 191C-247.228 191 -222.128 198.157 -200.508 210.662C-182.013 150.629 -126.101 107 -59.9998 107C-3.56146 107 45.4486 138.806 70.0833 185.471C95.9573 162.765 129.871 149 167 149C212.666 149 253.469 169.823 280.431 202.492C302.732 188.858 328.948 181 357 181C402.478 181 443.132 201.651 470.096 234.088C492.252 220.702 518.227 213 546 213C572.249 213 596.891 219.88 618.221 231.934C644.634 206.582 680.498 191 720 191C736.737 191 752.821 193.797 767.809 198.949C785.574 137.741 842.062 93 909 93C967.584 93 1018.16 127.27 1041.79 176.856C1054.86 173.044 1068.69 171 1083 171C1115.5 171 1145.54 181.548 1169.88 199.408C1185.24 193.963 1201.77 191 1219 191C1300.19 191 1366 256.814 1366 338C1366 382.967 1345.81 423.218 1314 450.182C1314 450.182 1372 569 1262 649C1152 729 -200.508 601.961 -340 697C-479.492 792.039 -769.643 527 -828 551Z" fill="#EFF3F7"/>
<path fill-rule="evenodd" clip-rule="evenodd" d="M142.563 755.597C79.6266 705.619 52 649.983 52 604C52 534.747 99.8885 476.68 164.357 461.106C182.712 400.844 238.736 357 305 357C334.574 357 362.108 365.733 385.164 380.761C411.295 340.007 456.993 313 509 313C556.257 313 598.306 335.299 625.198 369.95C630.712 369.322 636.318 369 642 369C693.408 369 738.652 395.389 764.926 435.359C788.166 419.965 816.036 411 846 411C872.772 411 897.872 418.157 919.492 430.662C937.987 370.629 993.899 327 1060 327C1116.44 327 1165.45 358.806 1190.08 405.471C1215.96 382.765 1249.87 369 1287 369C1332.67 369 1373.47 389.823 1400.43 422.492C1422.73 408.858 1448.95 401 1477 401C1522.48 401 1563.13 421.651 1590.1 454.088C1612.25 440.702 1638.23 433 1666 433C1692.25 433 1716.89 439.88 1738.22 451.934C1764.63 426.582 1800.5 411 1840 411C1856.74 411 1872.82 413.797 1887.81 418.949C1905.57 357.741 1962.06 313 2029 313C2087.58 313 2138.16 347.27 2161.79 396.856C2174.86 393.044 2188.69 391 2203 391C2235.5 391 2265.54 401.548 2289.88 419.408C2305.24 413.963 2321.77 411 2339 411C2420.19 411 2486 476.814 2486 558C2486 602.967 2465.81 643.218 2434 670.182C2434 670.182 2492 789 2382 869C2334.34 903.659 2053.19 917.297 1738.58 921.621C1685.34 944.57 1586.12 960 1472.5 960C1395.36 960 1324.86 952.888 1270.88 941.139C1229.84 983.946 1133.41 1014 1021 1014C915.071 1014 823.337 987.312 778.766 948.413C735.787 955.836 687.514 960 636.5 960C470.355 960 333.284 915.83 313.462 858.777C312.123 858.986 310.778 859.182 309.426 859.366C225.796 870.762 151.357 831.251 143.163 771.116C142.455 765.917 142.265 760.735 142.563 755.597Z" fill="white"/>
</svg>
