<svg width="100" height="100" viewBox="0 0 100 100" fill="none" xmlns="http://www.w3.org/2000/svg">
<g clip-path="url(#clip0_75_7)">
<path fill-rule="evenodd" clip-rule="evenodd" d="M13.3726 75.752C10.6803 82.2778 7.04171 88.4741 6 95L9.76335 94.6777C15.7055 77.4219 21.0607 65.8203 32.6735 51.311C41.3887 40.4419 50.8447 31.792 62.9711 24.9219C69.4267 21.2598 77.6943 17.2534 85.133 16.2427C87.1651 15.9644 89.2265 15.8838 91.3392 16.0669C68.3043 21.333 50.0671 33.5278 35.4979 51.8091C29.5484 59.2651 24.3766 67.5488 19.6229 76.2793L28.382 77.876L24.736 76.0669L37.7794 73.9941C32.9376 72.2876 28.1546 72.8589 26.6214 71.0205C40.0462 70.4126 51.0795 67.5195 58.8262 61.9019C55.9432 61.499 52.62 61.1401 50.8887 60.3125C63.866 55.9326 71.3707 48.0591 80.8928 41.0718C68.517 43.6646 57.0656 43.2397 53.7498 40.8887C75.5889 42.5073 89.696 36.4795 94.5304 21.2817C94.9485 19.6411 95.0659 17.9858 94.8018 16.3159C93.1072 5.4541 73.8503 1.78467 67.5854 10.6909C66.3309 12.4707 64.563 14.104 63.1031 16.1694L69.0672 5C53.0162 10.4126 51.6957 16.3818 43.3914 34.3628C44.0516 28.8916 45.5702 23.9331 47.5435 19.2529C27.487 26.98 20.804 46.4331 19.7329 62.9785C19.1534 57.207 20.2244 49.9561 22.2932 41.8115C16.4391 47.6709 12.4556 54.5483 13.8788 64.3628L11.2012 63.1689L12.6097 68.4351L8.60427 66.5381L13.3726 75.752Z" fill="#EFF2F6"/>
</g>
<defs>
<clipPath id="clip0_75_7">
<rect width="88.9412" height="90" fill="white" transform="translate(6 5)"/>
</clipPath>
</defs>
</svg>
