<?xml version="1.0" encoding="UTF-8" standalone="no"?>
<!DOCTYPE svg PUBLIC "-//W3C//DTD SVG 1.1//EN" "http://www.w3.org/Graphics/SVG/1.1/DTD/svg11.dtd">
<svg width="100%" height="100%" viewBox="0 0 200 199" version="1.1" xmlns="http://www.w3.org/2000/svg" xmlns:xlink="http://www.w3.org/1999/xlink" xml:space="preserve" xmlns:serif="http://www.serif.com/" style="fill-rule:evenodd;clip-rule:evenodd;stroke-linejoin:round;stroke-miterlimit:2;">
    <g transform="matrix(1,0,0,1,-12950.9,-9892.7)">
        <g transform="matrix(2,0,0,1.98913,10255.3,10422.7)">
            <g transform="matrix(1.66667,0,0,1.66667,-4231.58,-558.693)">
                <g transform="matrix(1.14858,0,0,1.00435,-496.458,-0.431047)">
                    <rect x="3346.82" y="175.016" width="52.238" height="59.74" style="fill:rgb(28,28,33);fill-opacity:0;"/>
                </g>
                <g transform="matrix(0.562544,0,0,0.562544,-5747.03,-28.729)">
                    <circle cx="16220.4" cy="416.101" r="39.997" style="fill:rgb(19,19,22);fill-opacity:0;"/>
                    <path d="M16220.4,376.104C16242.4,376.104 16260.4,394.026 16260.4,416.101C16260.4,438.176 16242.4,456.098 16220.4,456.098C16198.3,456.098 16180.4,438.176 16180.4,416.101C16180.4,394.026 16198.3,376.104 16220.4,376.104ZM16220.4,378.249C16241.3,378.249 16258.2,395.207 16258.2,416.101C16258.2,436.995 16241.3,453.953 16220.4,453.953C16199.5,453.953 16182.5,436.995 16182.5,416.101C16182.5,395.207 16199.5,378.249 16220.4,378.249Z" style="fill:white;"/>
                </g>
                <g transform="matrix(0.312524,0,0,0.312524,-1691.62,75.3044)">
                    <circle cx="16220.4" cy="416.101" r="39.997" style="fill:rgb(19,19,22);fill-opacity:0;"/>
                    <clipPath id="_clip1">
                        <circle cx="16220.4" cy="416.101" r="39.997"/>
                    </clipPath>
                    <g clip-path="url(#_clip1)">
                        <g transform="matrix(1.59988,0,0,1.59988,-9721.83,-254.355)">
                            <path d="M16228.6,386.692C16228.6,386.692 16220.5,396.614 16219.2,402.81C16218.5,406.024 16212.9,409.521 16213.5,413.135C16214.1,416.489 16219.6,422.048 16220.7,423.866C16222.9,427.265 16228.2,427.431 16232.2,427.507C16236.8,427.594 16248.3,424.386 16248.3,424.386L16249.4,400.176L16228.6,386.692Z" style="fill:white;"/>
                            <path d="M16228.6,386.692C16228.6,386.692 16220.5,396.614 16219.2,402.81C16218.5,406.024 16212.9,409.521 16213.5,413.135C16214.1,416.489 16219.6,422.048 16220.7,423.866C16222.9,427.265 16228.2,427.431 16232.2,427.507C16236.8,427.594 16248.3,424.386 16248.3,424.386L16249.4,400.176L16228.6,386.692ZM16229.2,389.902L16246.9,401.45C16246.9,401.45 16246,422.517 16246,422.517C16242.7,423.38 16235.6,425.158 16232.3,425.095C16230.4,425.06 16228.2,425.019 16226.3,424.579C16224.9,424.251 16223.5,423.748 16222.8,422.577C16222.1,421.463 16219.8,418.964 16217.9,416.409C16216.9,415.089 16216,413.792 16215.9,412.73C16215.8,412.326 16216,411.942 16216.2,411.546C16216.5,410.804 16217.1,410.077 16217.7,409.353C16219.4,407.302 16221.1,405.223 16221.5,403.315C16222.4,399.018 16226.9,392.838 16229.2,389.902L16229.2,389.902Z" style="fill:white;"/>
                        </g>
                        <g transform="matrix(-0.799938,1.38553,-1.38553,-0.799938,29750.3,-21709.9)">
                            <path d="M16228.6,386.692C16228.6,386.692 16220.5,396.614 16219.2,402.81C16218.5,406.024 16212.9,409.521 16213.5,413.135C16214.1,416.489 16219.6,422.048 16220.7,423.866C16222.9,427.265 16228.2,427.431 16232.2,427.507C16236.8,427.594 16248.3,424.386 16248.3,424.386L16249.4,400.176L16228.6,386.692Z" style="fill:white;"/>
                            <path d="M16228.6,386.692C16228.6,386.692 16220.5,396.614 16219.2,402.81C16218.5,406.024 16212.9,409.521 16213.5,413.135C16214.1,416.489 16219.6,422.048 16220.7,423.866C16222.9,427.265 16228.2,427.431 16232.2,427.507C16236.8,427.594 16248.3,424.386 16248.3,424.386L16249.4,400.176L16228.6,386.692ZM16229.2,389.901L16246.9,401.446C16246.9,401.446 16246,422.532 16246,422.532C16242.7,423.395 16235.6,425.167 16232.3,425.104C16230.4,425.069 16228.3,425.029 16226.3,424.589C16224.9,424.261 16223.5,423.755 16222.8,422.583C16222.1,421.469 16219.8,418.971 16217.9,416.416C16216.9,415.092 16216.1,413.789 16215.9,412.724C16215.8,412.316 16216,411.926 16216.2,411.527C16216.6,410.784 16217.1,410.058 16217.7,409.334C16219.4,407.283 16221.1,405.206 16221.5,403.298C16222.4,399.01 16226.9,392.846 16229.2,389.901L16229.2,389.901Z" style="fill:white;"/>
                        </g>
                    </g>
                    <path d="M16220.4,376.104C16242.4,376.104 16260.4,394.026 16260.4,416.101C16260.4,438.176 16242.4,456.098 16220.4,456.098C16198.3,456.098 16180.4,438.176 16180.4,416.101C16180.4,394.026 16198.3,376.104 16220.4,376.104ZM16220.4,379.965C16240.3,379.965 16256.5,396.151 16256.5,416.101C16256.5,436.051 16240.3,452.237 16220.4,452.237C16200.4,452.237 16184.2,436.051 16184.2,416.101C16184.2,396.151 16200.4,379.965 16220.4,379.965Z" style="fill:white;"/>
                </g>
                <g transform="matrix(0.125208,0,0,0.125208,1346.72,131.914)">
                    <circle cx="16220.4" cy="416.101" r="39.997" style="fill:white;"/>
                    <path d="M16220.4,376.104C16242.4,376.104 16260.4,394.026 16260.4,416.101C16260.4,438.176 16242.4,456.098 16220.4,456.098C16198.3,456.098 16180.4,438.176 16180.4,416.101C16180.4,394.026 16198.3,376.104 16220.4,376.104ZM16220.4,385.741C16237.1,385.741 16250.8,399.33 16250.8,416.101C16250.8,432.872 16237.1,446.462 16220.4,446.462C16203.6,446.462 16190,432.872 16190,416.101C16190,399.33 16203.6,385.741 16220.4,385.741Z" style="fill:white;"/>
                </g>
                <g transform="matrix(0.125208,0,0,0.125208,1346.72,174.58)">
                    <circle cx="16220.4" cy="416.101" r="39.997" style="fill:white;"/>
                    <path d="M16220.4,376.104C16242.4,376.104 16260.4,394.026 16260.4,416.101C16260.4,438.176 16242.4,456.098 16220.4,456.098C16198.3,456.098 16180.4,438.176 16180.4,416.101C16180.4,394.026 16198.3,376.104 16220.4,376.104ZM16220.4,385.741C16237.1,385.741 16250.8,399.33 16250.8,416.101C16250.8,432.872 16237.1,446.462 16220.4,446.462C16203.6,446.462 16190,432.872 16190,416.101C16190,399.33 16203.6,385.741 16220.4,385.741Z" style="fill:white;"/>
                </g>
            </g>
        </g>
    </g>
</svg>
