<?xml version="1.0" encoding="UTF-8" standalone="no"?>
<!DOCTYPE svg PUBLIC "-//W3C//DTD SVG 1.1//EN" "http://www.w3.org/Graphics/SVG/1.1/DTD/svg11.dtd">
<svg width="100%" height="100%" viewBox="0 0 800 800" version="1.1" xmlns="http://www.w3.org/2000/svg" xmlns:xlink="http://www.w3.org/1999/xlink" xml:space="preserve" xmlns:serif="http://www.serif.com/" style="fill-rule:evenodd;clip-rule:evenodd;stroke-linejoin:round;stroke-miterlimit:2;">
    <g transform="matrix(1,0,0,1,-4265.08,-7647.88)">
        <g transform="matrix(0.929782,0,0,0.929782,5463.67,6247.91)">
            <g transform="matrix(1.04909,0,0,1.04332,-13463.5,-1266.56)">
                <rect x="11604.8" y="2657.14" width="820.159" height="824.691" style="fill:none;"/>
            </g>
            <g transform="matrix(1.07552,0,0,1.07552,-7088.05,-5658.27)">
                <path d="M5729.18,7129.52C5726.59,7129.07 5724.29,7128.63 5722.31,7128.23C5693.54,7122.45 5680.96,7109.86 5680.96,7109.86L5742.71,7102.73C5718.29,7103.4 5694.76,7103.61 5681.02,7102.64C5649.39,7100.42 5629.83,7074.56 5629.83,7074.56C5629.83,7074.56 5656.07,7071.48 5689.21,7067.65C5665.97,7066.88 5645.65,7066.03 5634.72,7065.16C5599.23,7062.35 5578.9,7028.9 5578.9,7028.9L5646.27,7026.45C5618.66,7025.07 5593.96,7022.16 5579.86,7016.65C5538.68,7000.57 5539.4,6967.51 5539.4,6967.51L5622.52,6972.03C5597.22,6967.79 5574.05,6963.69 5557.14,6960.28C5506.6,6950.08 5510.73,6891.94 5510.73,6891.94L5602.13,6908.79C5565.5,6897.12 5533.94,6886.79 5520.72,6881.76C5481.45,6866.85 5485.42,6801.43 5485.42,6801.43L5607.78,6842.65C5561.75,6823.79 5515.91,6803.65 5488.47,6788C5460.1,6771.82 5461.92,6711.47 5461.92,6711.47C5461.92,6711.47 5490.03,6711.19 5597.07,6750.08C5624.94,6760.2 5657.05,6776.61 5688.96,6794.78C5727.96,6817.01 5766.38,6840.06 5820.22,6886.07C5841.23,6904.02 5860.82,6931.92 5873.07,6949.94C5877.26,6956.11 5881.61,6962.51 5885.25,6969.2C5885.49,6969.21 5885.72,6969.23 5885.93,6969.27C5909.43,6938.58 5938.16,6920.64 5953.91,6915.41C5978.91,6907.09 5999.26,6907.41 6009.32,6908.21C6021.91,6909.21 6059.31,6912.47 6075,6907.27C6093.82,6901.03 6121.61,6893.75 6121.61,6893.75C6121.61,6893.75 6057.15,6983.22 6039.44,6991.57C6017.63,7001.84 6009.78,7017.06 6005.99,7045.14C6003.4,7064.31 5978.24,7116.22 5948.85,7144.82C5899.88,7192.46 5841.04,7197.6 5804.56,7209.91C5747.43,7229.19 5506.87,7410.39 5506.87,7410.39C5506.87,7410.39 5624.4,7255.7 5729.18,7129.52Z" style="fill:url(#_Linear1);"/>
            </g>
        </g>
    </g>
    <defs>
        <linearGradient id="_Linear1" x1="0" y1="0" x2="1" y2="0" gradientUnits="userSpaceOnUse" gradientTransform="matrix(-372.308,446.078,-472.59,-394.436,5882.09,6964.31)"><stop offset="0" style="stop-color:rgb(245,248,114);stop-opacity:1"/><stop offset="0.5" style="stop-color:rgb(255,215,0);stop-opacity:1"/><stop offset="1" style="stop-color:rgb(213,162,36);stop-opacity:1"/></linearGradient>
    </defs>
</svg>
