<?xml version="1.0" encoding="UTF-8" standalone="no"?>
<!DOCTYPE svg PUBLIC "-//W3C//DTD SVG 1.1//EN" "http://www.w3.org/Graphics/SVG/1.1/DTD/svg11.dtd">
<svg width="100%" height="100%" viewBox="0 0 1910 1493" version="1.1" xmlns="http://www.w3.org/2000/svg" xmlns:xlink="http://www.w3.org/1999/xlink" xml:space="preserve" xmlns:serif="http://www.serif.com/" style="fill-rule:evenodd;clip-rule:evenodd;stroke-linejoin:round;stroke-miterlimit:2;">
    <g transform="matrix(1,0,0,1,-6612.01,-2618.98)">
        <g transform="matrix(5.19296,0,0,3.18963,-5143.84,2186.04)">
            <g id="motualis-m-black" serif:id="motualis m black" transform="matrix(0.899731,0,0,1.46483,2145.88,-186.704)">
                <g id="m" transform="matrix(0.929452,0,0,0.929452,-406.228,-3.4759)">
                    <path d="M578.083,320.112C578.083,320.112 892.026,320.069 930.192,320.069C942.351,320.069 953.835,321.842 964.643,325.388C975.451,328.935 984.739,334.508 992.508,342.107C1000.28,349.707 1006.44,359.586 1011,371.745C1015.56,383.904 1017.84,398.597 1017.84,415.822L1017.84,584.265L926.139,584.265L926.139,456.353C926.139,443.18 925.21,432.372 923.352,423.928C921.495,415.484 918.793,408.898 915.246,404.17C911.7,399.441 907.562,396.232 902.834,394.544C898.105,392.855 893.039,392.01 887.635,392.01C858.25,392.01 843.558,413.458 843.558,456.353L843.558,584.265L751.858,584.265L751.858,456.353C751.858,443.18 751.014,432.288 749.325,423.675C747.636,415.062 745.187,408.223 741.979,403.156C738.77,398.09 734.632,394.628 729.566,392.77C724.5,390.913 718.589,389.984 711.834,389.984C706.092,389.984 700.688,390.828 695.622,392.517C690.556,394.206 686.08,397.499 682.196,402.396C678.312,407.294 675.272,414.049 673.077,422.662C670.881,431.274 669.784,442.505 669.784,456.353L669.784,584.265L578.083,584.265L578.083,320.112Z" style="fill:rgb(249,251,255);fill-rule:nonzero;"/>
                </g>
                <g transform="matrix(1.89156,0,0,-1.48606,-1471.16,624.089)">
                    <g id="Line">
                        <path d="M1063.13,245.993L847.046,245.993L847.046,271.841L1042.82,271.841L1063.13,245.993Z" style="fill:rgb(249,251,255);"/>
                    </g>
                </g>
            </g>
        </g>
    </g>
</svg>
