<svg width="81" height="78" viewBox="0 0 81 78" fill="none" xmlns="http://www.w3.org/2000/svg">
<path d="M0.0411485 74.9909C-0.181759 76.0727 0.514547 77.1304 1.59639 77.3533C2.67823 77.5762 3.73594 76.8799 3.95885 75.7981L0.0411485 74.9909ZM3.95885 75.7981C7.46088 58.8015 22.049 27.6243 55.8922 20.8556L55.1078 16.9333C18.951 24.1647 3.68197 57.3207 0.0411485 74.9909L3.95885 75.7981Z" fill="url(#paint0_linear_63_4)"/>
<path d="M56.2193 10.2232C56.0124 9.17777 57.3663 8.57707 58.0025 9.43207L60.2569 12.4617C60.6693 13.0158 61.5059 12.995 61.8902 12.421L63.9911 9.28304C64.584 8.39745 65.9662 8.93006 65.8115 9.98452L65.2633 13.7209C65.1631 14.4043 65.7694 14.9811 66.4469 14.847L70.1514 14.1137C71.1969 13.9068 71.7976 15.2607 70.9426 15.8969L67.913 18.1514C67.3588 18.5637 67.3797 19.4003 67.9536 19.7846L71.0916 21.8855C71.9772 22.4784 71.4446 23.8606 70.3901 23.7059L66.6537 23.1577C65.9703 23.0575 65.3935 23.6638 65.5276 24.3413L66.2609 28.0458C66.4679 29.0913 65.1139 29.692 64.4777 28.837L62.2233 25.8074C61.8109 25.2532 60.9743 25.2741 60.5901 25.848L58.4891 28.986C57.8962 29.8716 56.5141 29.339 56.6688 28.2845L57.2169 24.5481C57.3172 23.8648 56.7109 23.2879 56.0333 23.422L52.3288 24.1553C51.2834 24.3623 50.6827 23.0083 51.5377 22.3721L54.5673 20.1177C55.1214 19.7053 55.1006 18.8688 54.5266 18.4845L51.3886 16.3835C50.503 15.7906 51.0357 14.4085 52.0901 14.5632L55.8265 15.1113C56.5099 15.2116 57.0867 14.6053 56.9526 13.9277L56.2193 10.2232Z" fill="url(#paint1_linear_63_4)"/>
<defs>
<linearGradient id="paint0_linear_63_4" x1="30.5" y1="23.3945" x2="30.5" y2="75.3945" gradientUnits="userSpaceOnUse">
<stop offset="0.135417" stop-color="#FFD700"/>
<stop offset="1" stop-color="#FFD700" stop-opacity="0"/>
</linearGradient>
<linearGradient id="paint1_linear_63_4" x1="67.5137" y1="13.0401" x2="55.5" y2="18.8944" gradientUnits="userSpaceOnUse">
<stop stop-color="#D5A224"/>
<stop offset="1" stop-color="#FFD700"/>
</linearGradient>
</defs>
</svg>
