<svg width="150" height="150" viewBox="0 0 150 150" fill="none" xmlns="http://www.w3.org/2000/svg">
<rect x="48.1666" y="6" width="68.8594" height="107.115" rx="4" fill="#177EFE"/>
<rect x="59.8334" y="24.0751" width="45.9063" height="50.6146" rx="2" fill="white"/>
<rect x="59.8334" y="79.1624" width="45.9063" height="4.59063" rx="2" fill="#FFD700"/>
<rect x="59.8334" y="86.8134" width="45.9063" height="4.59063" rx="2" fill="#FFD700"/>
<rect x="59.8334" y="94.6666" width="45.9063" height="4.59063" rx="2" fill="#FFD700"/>
<rect x="59.8334" y="102.52" width="45.9063" height="4.59063" rx="2" fill="#FFD700"/>
<rect x="67.4844" y="11.8334" width="29.074" height="7.65104" rx="2" fill="white"/>
<rect x="5" y="34" width="68.8333" height="47.8333" rx="4" fill="#177EFE"/>
<path d="M5 66.6666H73.8333V77.8333C73.8333 80.0424 72.0425 81.8333 69.8333 81.8333H9C6.79086 81.8333 5 80.0424 5 77.8333V66.6666Z" fill="white"/>
<path d="M52.268 46.3334C53.0378 45 54.9623 45 55.7321 46.3334L67.4234 66.5834C68.1932 67.9167 67.2309 69.5834 65.6913 69.5834H42.3087C40.7691 69.5834 39.8068 67.9167 40.5766 66.5834L52.268 46.3334Z" fill="white"/>
<path d="M34.768 54.5C35.5378 53.1667 37.4623 53.1667 38.2321 54.5L49.9234 74.75C50.6932 76.0833 49.7309 77.75 48.1913 77.75H24.8087C23.2691 77.75 22.3068 76.0833 23.0766 74.75L34.768 54.5Z" fill="white"/>
<circle cx="18.4166" cy="45.0834" r="5.25" fill="#FFD700"/>
<rect x="76.1666" y="97" width="68.8333" height="47.8333" rx="4" fill="#177EFE"/>
<path d="M121.667 122.366L101.417 134.057C100.75 134.442 99.9166 133.961 99.9166 133.191L99.9166 109.809C99.9166 109.039 100.75 108.558 101.417 108.943L121.667 120.634C122.333 121.019 122.333 121.981 121.667 122.366Z" fill="#FFD700" stroke="white" stroke-width="2"/>
</svg>
