<?xml version="1.0" encoding="UTF-8" standalone="no"?>
<!DOCTYPE svg PUBLIC "-//W3C//DTD SVG 1.1//EN" "http://www.w3.org/Graphics/SVG/1.1/DTD/svg11.dtd">
<svg width="100%" height="100%" viewBox="0 0 800 800" version="1.1" xmlns="http://www.w3.org/2000/svg" xmlns:xlink="http://www.w3.org/1999/xlink" xml:space="preserve" xmlns:serif="http://www.serif.com/" style="fill-rule:evenodd;clip-rule:evenodd;stroke-linejoin:round;stroke-miterlimit:2;">
    <g transform="matrix(1,0,0,1,-4265.08,-6660.92)">
        <g transform="matrix(0.929782,0,0,0.929782,5463.67,5260.96)">
            <g transform="matrix(1.04909,0,0,1.04332,-13463.5,-1266.56)">
                <rect x="11604.8" y="2657.14" width="820.159" height="824.691" style="fill:none;"/>
            </g>
            <g transform="matrix(2.12355,0,0,2.3595,-1518.61,-4434.55)">
                <path d="M358.364,2658.14C370.263,2644.14 384.817,2635.97 392.793,2633.58C405.457,2629.79 415.759,2629.94 420.855,2630.3C427.235,2630.76 446.176,2632.24 454.121,2629.87C463.652,2627.03 477.729,2623.71 477.729,2623.71C477.729,2623.71 445.08,2664.49 436.114,2668.3C425.067,2672.98 421.092,2679.92 419.169,2692.72C417.858,2701.45 405.116,2725.12 390.229,2738.16C365.43,2759.87 335.628,2762.22 317.153,2767.83C288.218,2776.61 166.381,2859.21 166.381,2859.21C166.381,2859.21 338.837,2654.93 358.364,2658.14Z" style="fill:white;"/>
            </g>
            <g transform="matrix(1.76219,3.55271e-16,2.93099e-15,1.76219,674.003,-1505.3)">
                <g>
                    <g transform="matrix(1.07552,0,0,1.07552,-5318.99,-9100.97)">
                        <path d="M4154.57,10273.1C4154.15,10272.5 4044.81,10285.3 4044.81,10285.3C4044.81,10285.3 4055.91,10300 4073.86,10301.3C4095.39,10302.8 4159.29,10299.2 4159.29,10299.2C4159.29,10299.2 4155.26,10274.1 4154.57,10273.1Z" style="fill:white;"/>
                    </g>
                    <g transform="matrix(1.07552,0,0,1.07552,-5333.74,-9131.35)">
                        <path d="M4157.61,10283L4029.62,10287.7C4029.62,10287.7 4041.16,10306.7 4061.3,10308.3C4082.4,10309.9 4165.12,10311.5 4165.12,10311.5L4157.61,10283Z" style="fill:white;"/>
                    </g>
                    <g transform="matrix(1.07552,0,0,1.19071,-5320.61,-10280.3)">
                        <path d="M4128.97,10232.5L3995,10225.9C3995,10225.9 3994.59,10242.8 4017.96,10251.1C4044.44,10260.4 4136.69,10255.2 4136.69,10255.2L4128.97,10232.5Z" style="fill:white;"/>
                    </g>
                    <g transform="matrix(1.07552,0,0,1.07552,-5316.19,-9102.3)">
                        <path d="M4129.79,10211.5L3974.62,10182.9C3974.62,10182.9 3972.28,10215.9 4000.96,10221.7C4039.72,10229.5 4136.59,10243.8 4136.59,10243.8L4129.79,10211.5Z" style="fill:white;"/>
                    </g>
                    <g transform="matrix(1.07552,0,0,1.07552,-5319.85,-9103.27)">
                        <path d="M4133.2,10189.6L3963.66,10132.5C3963.66,10132.5 3961.41,10169.6 3983.7,10178.1C4006.85,10186.9 4128.97,10224.3 4128.97,10224.3L4133.2,10189.6Z" style="fill:white;"/>
                    </g>
                    <g transform="matrix(1.07552,0,0,1.07552,-5319.85,-9103.27)">
                        <path d="M3950.33,10081.4C3950.33,10081.4 3949.3,10115.7 3965.4,10124.9C4005.87,10147.9 4116.84,10188.2 4116.84,10188.2C4116.84,10188.2 4078.9,10184.8 4077.39,10188.9C4075.88,10193.1 4107.77,10213.1 4107.77,10213.1C4107.77,10213.1 4076.62,10214.4 4076.58,10218.3C4076.53,10222.3 4107.46,10236.8 4107.46,10236.8C4107.46,10236.8 4078.66,10243 4079.07,10246.8C4079.49,10250.6 4109.95,10259.6 4109.95,10259.6C4109.95,10259.6 4090.48,10267.7 4092.84,10271.6C4095.2,10275.4 4124.12,10282.7 4124.12,10282.7C4124.12,10282.7 4106.12,10289.6 4107.72,10292.6C4109.33,10295.6 4133.76,10300.7 4133.76,10300.7L4074.63,10307.5C4074.63,10307.5 4081.77,10314.6 4098.1,10317.9C4108.32,10320 4133.27,10324.1 4163.73,10312.4C4177.9,10306.9 4185.48,10298.3 4190.5,10287.2C4195.77,10275.4 4196.51,10253.6 4195.37,10241.9C4194.48,10232.7 4188.84,10224.4 4183.65,10216.8C4176.69,10206.5 4165.58,10190.7 4153.66,10180.5C4123.1,10154.4 4101.3,10141.3 4079.17,10128.7C4061.06,10118.4 4042.84,10109.1 4027.03,10103.3C3966.28,10081.3 3950.33,10081.4 3950.33,10081.4Z" style="fill:white;"/>
                    </g>
                </g>
            </g>
        </g>
    </g>
</svg>
