<svg width="150" height="150" viewBox="0 0 150 150" fill="none" xmlns="http://www.w3.org/2000/svg">
<rect x="11" y="5" width="59.0223" height="91.8125" rx="4" fill="#177EFE"/>
<rect x="14.9349" y="8.93494" width="7.86964" height="7.86964" rx="2" fill="white"/>
<rect x="46.4135" y="8.93494" width="19.6741" height="7.86964" rx="2" fill="white"/>
<rect x="21.4929" y="35.1671" width="39.3482" height="43.3839" rx="2" fill="white"/>
<rect x="21.4929" y="82.3848" width="39.3482" height="3.93482" rx="1.96741" fill="white"/>
<rect x="21.4929" y="88.9427" width="39.3482" height="3.93482" rx="1.96741" fill="white"/>
<rect x="28.0509" y="24.6742" width="24.9205" height="6.55804" rx="2" fill="white"/>
<rect x="108.434" y="115.77" width="30.448" height="29.2301" rx="4" fill="#177EFE"/>
<rect x="114.523" y="121.616" width="18.2688" height="17.5381" rx="2" fill="white"/>
<path d="M102.354 116.458C103.159 116.262 103.653 115.451 103.458 114.646L100.272 101.527C100.077 100.722 99.2658 100.228 98.4608 100.424C97.6558 100.619 97.1616 101.43 97.3571 102.235L100.188 113.896L88.5272 116.728C87.7222 116.923 87.228 117.734 87.4235 118.539C87.619 119.344 88.43 119.838 89.2351 119.643L102.354 116.458ZM72.8559 99L101.22 116.281L102.78 113.719L74.4168 96.438L72.8559 99Z" fill="#FFD700"/>
</svg>
