<?xml version="1.0" encoding="UTF-8" standalone="no"?>
<!DOCTYPE svg PUBLIC "-//W3C//DTD SVG 1.1//EN" "http://www.w3.org/Graphics/SVG/1.1/DTD/svg11.dtd">
<svg width="100%" height="100%" viewBox="0 0 403 403" version="1.1" xmlns="http://www.w3.org/2000/svg" xmlns:xlink="http://www.w3.org/1999/xlink" xml:space="preserve" xmlns:serif="http://www.serif.com/" style="fill-rule:evenodd;clip-rule:evenodd;stroke-linejoin:round;stroke-miterlimit:2;">
    <g transform="matrix(1,0,0,1,-4385.92,-168.544)">
        <g transform="matrix(3.02097,0,0,3.6476,-5590.26,4245.97)">
            <g transform="matrix(0.331019,0,0,0.274153,2558.98,-1778.72)">
                <rect x="2245.59" y="2410.65" width="402.772" height="402.772" style="fill:rgb(128,128,128);"/>
                <clipPath id="_clip1">
                    <rect x="2245.59" y="2410.65" width="402.772" height="402.772"/>
                </clipPath>
                <g clip-path="url(#_clip1)">
                    <g transform="matrix(1,0,0,1,65.4865,7.06805)">
                        <path d="M2477.19,2649.68C2478.03,2647.99 2479.76,2646.91 2481.66,2646.91C2483.55,2646.91 2485.28,2647.99 2486.13,2649.68C2505.58,2688.58 2581.83,2841.07 2581.83,2841.07L2381.49,2841.07C2381.49,2841.07 2457.74,2688.58 2477.19,2649.68Z" style="fill:rgb(185,185,185);"/>
                    </g>
                    <g transform="matrix(1,0,0,1,99.2715,0.616334)">
                        <path d="M2259.93,2551.78C2260.65,2549.82 2262.52,2548.51 2264.62,2548.51C2266.72,2548.51 2268.59,2549.82 2269.32,2551.78C2292.83,2615.93 2396.71,2899.29 2396.71,2899.29L2132.53,2899.29C2132.53,2899.29 2236.41,2615.93 2259.93,2551.78Z" style="fill:rgb(185,185,185);"/>
                    </g>
                    <g transform="matrix(1,0,0,1,42.2196,-0.60348)">
                        <circle cx="2507.82" cy="2493.82" r="45.161" style="fill:rgb(185,185,185);"/>
                    </g>
                </g>
            </g>
        </g>
    </g>
</svg>
