<?xml version="1.0" encoding="UTF-8" standalone="no"?>
<!DOCTYPE svg PUBLIC "-//W3C//DTD SVG 1.1//EN" "http://www.w3.org/Graphics/SVG/1.1/DTD/svg11.dtd">
<svg width="100%" height="100%" viewBox="0 0 2304 1423" version="1.1" xmlns="http://www.w3.org/2000/svg" xmlns:xlink="http://www.w3.org/1999/xlink" xml:space="preserve" xmlns:serif="http://www.serif.com/" style="fill-rule:evenodd;clip-rule:evenodd;stroke-linejoin:round;stroke-miterlimit:2;">
    <g transform="matrix(1,0,0,1,-214.4,-12319.6)">
        <g transform="matrix(1.45045,0,0,0.700098,3557.18,9178.56)">
            <g transform="matrix(0.653795,0,0,1.3394,-2400.33,-1373.01)">
                <rect x="146.335" y="4374.74" width="2428.78" height="1517.1" style="fill:none;"/>
            </g>
            <g transform="matrix(1.25584,0,0,1.25584,395.203,-1403.4)">
                <g transform="matrix(1.08284,0,0,1.08284,-381.656,-453.493)">
                    <g transform="matrix(0.576744,0,0,2.42136,-1796.28,-26720.4)">
                        <path d="M1546.32,13251.3C1546.32,13246.5 1538.45,13242.6 1528.74,13242.6L1183.15,13242.6C1173.44,13242.6 1165.57,13246.5 1165.57,13251.3L1165.57,13421.8C1165.57,13426.6 1173.44,13430.5 1183.15,13430.5C1246.83,13430.5 1465.05,13430.5 1528.74,13430.5C1538.45,13430.5 1546.32,13426.6 1546.32,13421.8C1546.32,13390.4 1546.32,13282.7 1546.32,13251.3Z" style="fill:white;"/>
                        <path d="M1546.32,13251.3C1546.32,13246.5 1538.45,13242.6 1528.74,13242.6L1183.15,13242.6C1173.44,13242.6 1165.57,13246.5 1165.57,13251.3L1165.57,13421.8C1165.57,13426.6 1173.44,13430.5 1183.15,13430.5L1528.74,13430.5C1538.45,13430.5 1546.32,13426.6 1546.32,13421.8C1546.32,13390.4 1546.32,13282.7 1546.32,13251.3ZM1528.74,13251.3L1528.74,13421.8C1528.74,13417 1519.03,13421.8 1528.74,13421.8C1528.74,13421.8 1183.2,13421.8 1183.15,13421.8L1183.15,13251.3C1183.15,13256.1 1192.86,13251.3 1183.15,13251.3L1528.74,13251.3L1528.74,13251.3Z" style="fill:url(#_Linear1);"/>
                    </g>
                    <g transform="matrix(0.689443,0,0,1.42837,-1937.41,-12624.6)">
                        <text x="1240.43px" y="12773.4px" style="font-family:'Avenir-Black', 'Avenir', sans-serif;font-weight:800;font-size:95.554px;fill:url(#_Linear2);stroke:white;stroke-width:0.74px;">31st</text>
                    </g>
                    <g transform="matrix(0.689443,0,0,1.42837,-1878.65,-12816.3)">
                        <text x="1240.43px" y="12773.4px" style="font-family:'Avenir-Black', 'Avenir', sans-serif;font-weight:800;font-size:38.221px;fill:url(#_Linear3);stroke:white;stroke-width:0.74px;">January</text>
                    </g>
                    <g transform="matrix(0.689443,0,0,1.42837,-1958.59,-12491.6)">
                        <text x="1240.43px" y="12773.4px" style="font-family:'Avenir-Black', 'Avenir', sans-serif;font-weight:800;font-size:38.221px;fill:url(#_Linear4);stroke:white;stroke-width:0.74px;">2054</text>
                    </g>
                </g>
                <g transform="matrix(0.807584,0,0,0.807584,-1035.67,1142.87)">
                    <g transform="matrix(0.576744,0,0,2.42136,-1796.28,-26720.4)">
                        <path d="M1546.32,13254.2C1546.32,13247.8 1535.76,13242.6 1522.74,13242.6L1189.14,13242.6C1176.12,13242.6 1165.57,13247.8 1165.57,13254.2L1165.57,13418.9C1165.57,13425.3 1176.12,13430.5 1189.14,13430.5C1257.37,13430.5 1454.51,13430.5 1522.74,13430.5C1535.76,13430.5 1546.32,13425.3 1546.32,13418.9L1546.32,13254.2Z" style="fill:white;"/>
                    </g>
                    <g transform="matrix(0.743903,0,0,1.5412,-1258.55,-14947.5)">
                        <path d="M475.992,13213.5C478.042,13189 477.25,13165.5 467.206,13145.5C442.92,13097.3 386.062,13065.9 328.395,13065.9L328.394,13065.9C268.501,13065.9 212.78,13100.9 189.64,13152.2C181.287,13170.7 179.508,13180.5 180.797,13213.5C182.765,13263.8 471.785,13263.6 475.992,13213.5ZM447.719,13225.6C447.719,13159.7 394.296,13106.3 328.395,13106.3C328.395,13106.3 328.395,13106.3 328.394,13106.3C262.494,13106.3 209.071,13159.7 209.071,13225.6C209.071,13264 447.719,13264 447.719,13225.6Z" style="fill:white;"/>
                    </g>
                    <g transform="matrix(1.33773,0,0,1.33773,344.03,-1886.58)">
                        <g transform="matrix(0.0542738,0,0,0.621333,-1088.74,-2727.64)">
                            <path d="M1584.56,13267.4C1561.95,13252.7 1488.22,13242.6 1404.2,13242.6C1372.61,13242.6 1339.11,13242.6 1307.52,13242.6C1223.58,13242.6 1149.89,13252.7 1127.22,13267.3C1041.35,13322.7 832.7,13457.3 724.856,13526.9C708.989,13537.1 720.576,13548.1 756.153,13556.5C791.729,13565 847.173,13570 905.909,13569.9C1159.71,13569.7 1551.69,13569.4 1804.63,13569.3C1863.06,13569.2 1918.04,13564.2 1953.27,13555.8C1988.5,13547.4 1999.95,13536.4 1984.23,13526.2C1877.36,13457 1670.02,13322.7 1584.56,13267.4Z" style="fill:url(#_Linear5);"/>
                        </g>
                        <g transform="matrix(0.679793,0,0,1.40838,-1556.92,-12948.8)">
                            <circle cx="796.86" cy="13099.6" r="37.482" style="fill:url(#_Linear6);"/>
                        </g>
                    </g>
                    <g transform="matrix(0.986002,0,0,0.986002,925.132,69.1661)">
                        <g transform="matrix(0.401684,0,0,0.832199,-2282.11,-5460.46)">
                            <path d="M567.183,12782.1L572.638,12793.7L584.749,12789.3L580.353,12801.4L592.025,12806.9L580.353,12812.4L584.749,12824.5L572.638,12820.1L567.183,12831.7L561.728,12820.1L549.617,12824.5L554.013,12812.4L542.341,12806.9L554.013,12801.4L549.617,12789.3L561.728,12793.7L567.183,12782.1Z" style="fill:url(#_Linear7);"/>
                        </g>
                        <g transform="matrix(0.401684,0,0,0.832199,-2069.62,-5398.22)">
                            <path d="M567.183,12782.1L572.638,12793.7L584.749,12789.3L580.353,12801.4L592.025,12806.9L580.353,12812.4L584.749,12824.5L572.638,12820.1L567.183,12831.7L561.728,12820.1L549.617,12824.5L554.013,12812.4L542.341,12806.9L554.013,12801.4L549.617,12789.3L561.728,12793.7L567.183,12782.1Z" style="fill:url(#_Linear8);"/>
                        </g>
                        <g transform="matrix(0.401684,0,0,0.832199,-2180.77,-5648.07)">
                            <path d="M567.183,12782.1L572.638,12793.7L584.749,12789.3L580.353,12801.4L592.025,12806.9L580.353,12812.4L584.749,12824.5L572.638,12820.1L567.183,12831.7L561.728,12820.1L549.617,12824.5L554.013,12812.4L542.341,12806.9L554.013,12801.4L549.617,12789.3L561.728,12793.7L567.183,12782.1Z" style="fill:url(#_Linear9);"/>
                        </g>
                        <g transform="matrix(0.401684,0,0,0.832199,-2357.77,-5186.13)">
                            <path d="M567.183,12782.1L572.638,12793.7L584.749,12789.3L580.353,12801.4L592.025,12806.9L580.353,12812.4L584.749,12824.5L572.638,12820.1L567.183,12831.7L561.728,12820.1L549.617,12824.5L554.013,12812.4L542.341,12806.9L554.013,12801.4L549.617,12789.3L561.728,12793.7L567.183,12782.1Z" style="fill:url(#_Linear10);"/>
                        </g>
                        <g transform="matrix(0.689443,0,0,1.42837,-2486.73,-13135.3)">
                            <path d="M567.183,12782.1L572.638,12793.7L584.749,12789.3L580.353,12801.4L592.025,12806.9L580.353,12812.4L584.749,12824.5L572.638,12820.1L567.183,12831.7L561.728,12820.1L549.617,12824.5L554.013,12812.4L542.341,12806.9L554.013,12801.4L549.617,12789.3L561.728,12793.7L567.183,12782.1Z" style="fill:url(#_Linear11);"/>
                        </g>
                        <g transform="matrix(0.689443,0,0,1.42837,-2503.85,-12755)">
                            <path d="M567.183,12782.1L572.638,12793.7L584.749,12789.3L580.353,12801.4L592.025,12806.9L580.353,12812.4L584.749,12824.5L572.638,12820.1L567.183,12831.7L561.728,12820.1L549.617,12824.5L554.013,12812.4L542.341,12806.9L554.013,12801.4L549.617,12789.3L561.728,12793.7L567.183,12782.1Z" style="fill:url(#_Linear12);"/>
                        </g>
                        <g transform="matrix(0.689443,0,0,1.42837,-2371.08,-13181.4)">
                            <path d="M567.183,12782.1L572.638,12793.7L584.749,12789.3L580.353,12801.4L592.025,12806.9L580.353,12812.4L584.749,12824.5L572.638,12820.1L567.183,12831.7L561.728,12820.1L549.617,12824.5L554.013,12812.4L542.341,12806.9L554.013,12801.4L549.617,12789.3L561.728,12793.7L567.183,12782.1Z" style="fill:url(#_Linear13);"/>
                        </g>
                        <g transform="matrix(0.689443,0,0,1.42837,-2191.55,-12821.3)">
                            <path d="M567.183,12782.1L572.638,12793.7L584.749,12789.3L580.353,12801.4L592.025,12806.9L580.353,12812.4L584.749,12824.5L572.638,12820.1L567.183,12831.7L561.728,12820.1L549.617,12824.5L554.013,12812.4L542.341,12806.9L554.013,12801.4L549.617,12789.3L561.728,12793.7L567.183,12782.1Z" style="fill:url(#_Linear14);"/>
                        </g>
                    </g>
                </g>
                <g transform="matrix(0.79628,0,0,0.79628,110.484,952.409)">
                    <g transform="matrix(0.144766,0,0,1.52511,-1878.83,-14361.8)">
                        <path d="M1546.32,13261.3C1546.32,13256.4 1536.28,13251.6 1518.42,13248.1C1500.56,13244.6 1476.33,13242.6 1451.07,13242.6C1392.96,13242.6 1318.93,13242.6 1260.82,13242.6C1235.55,13242.6 1211.33,13244.6 1193.46,13248.1C1175.6,13251.6 1165.57,13256.4 1165.57,13261.3C1165.57,13297.3 1165.57,13375.8 1165.57,13411.8C1165.57,13416.7 1175.6,13421.5 1193.46,13425C1211.33,13428.5 1235.55,13430.5 1260.82,13430.5C1318.93,13430.5 1392.96,13430.5 1451.07,13430.5C1476.33,13430.5 1500.56,13428.5 1518.42,13425C1536.28,13421.5 1546.32,13416.7 1546.32,13411.8C1546.32,13375.8 1546.32,13297.3 1546.32,13261.3Z" style="fill:white;"/>
                    </g>
                    <g transform="matrix(0.144766,0,0,1.82961,-1809.92,-18451.4)">
                        <path d="M1546.32,13258.2C1546.32,13254.1 1536.28,13250.1 1518.42,13247.2C1500.56,13244.2 1476.33,13242.6 1451.07,13242.6C1392.96,13242.6 1318.93,13242.6 1260.82,13242.6C1235.55,13242.6 1211.33,13244.2 1193.46,13247.2C1175.6,13250.1 1165.57,13254.1 1165.57,13258.2C1165.57,13293.6 1165.57,13379.5 1165.57,13414.9C1165.57,13419 1175.6,13423 1193.46,13425.9C1211.33,13428.8 1235.55,13430.5 1260.82,13430.5C1318.93,13430.5 1392.96,13430.5 1451.07,13430.5C1476.33,13430.5 1500.56,13428.8 1518.42,13425.9C1536.28,13423 1546.32,13419 1546.32,13414.9C1546.32,13379.5 1546.32,13293.6 1546.32,13258.2Z" style="fill:white;"/>
                    </g>
                    <g transform="matrix(0.144766,0,0,2.29178,-1741.01,-24658.5)">
                        <path d="M1546.32,13255.1C1546.32,13248.2 1503.67,13242.6 1451.07,13242.6L1260.82,13242.6C1208.21,13242.6 1165.57,13248.2 1165.57,13255.1C1165.57,13289.2 1165.57,13383.9 1165.57,13418C1165.57,13424.9 1208.21,13430.5 1260.82,13430.5L1451.07,13430.5C1503.67,13430.5 1546.32,13424.9 1546.32,13418C1546.32,13383.9 1546.32,13289.2 1546.32,13255.1Z" style="fill:white;"/>
                    </g>
                    <g transform="matrix(0.144766,0,0,3.03148,-1672.11,-34593)">
                        <path d="M1546.32,13252C1546.32,13246.8 1503.67,13242.6 1451.07,13242.6C1392.96,13242.6 1318.93,13242.6 1260.82,13242.6C1208.21,13242.6 1165.57,13246.8 1165.57,13252C1165.57,13284.1 1165.57,13389 1165.57,13421.1C1165.57,13426.3 1208.21,13430.5 1260.82,13430.5C1318.93,13430.5 1392.96,13430.5 1451.07,13430.5C1503.67,13430.5 1546.32,13426.3 1546.32,13421.1C1546.32,13389 1546.32,13284.1 1546.32,13252Z" style="fill:url(#_Linear15);"/>
                    </g>
                    <g transform="matrix(0.597075,-0.714186,0.344722,1.23701,-6822.77,-9782.22)">
                        <path d="M1001.39,13130.9L1001.39,13096.8L1228.02,13096.8L1228.02,13065.2L1276.67,13113.9L1228.02,13162.5L1228.02,13130.9L1001.39,13130.9Z" style="fill:url(#_Linear16);"/>
                    </g>
                </g>
            </g>
        </g>
    </g>
    <defs>
        <linearGradient id="_Linear1" x1="0" y1="0" x2="1" y2="0" gradientUnits="userSpaceOnUse" gradientTransform="matrix(380.751,-187.892,380.751,187.892,1165.57,13430.5)"><stop offset="0" style="stop-color:rgb(213,162,36);stop-opacity:1"/><stop offset="0.5" style="stop-color:rgb(255,215,0);stop-opacity:1"/><stop offset="1" style="stop-color:rgb(245,248,114);stop-opacity:1"/></linearGradient>
        <linearGradient id="_Linear2" x1="0" y1="0" x2="1" y2="0" gradientUnits="userSpaceOnUse" gradientTransform="matrix(-318.512,318.512,-318.512,-318.512,1498.25,12580.3)"><stop offset="0" style="stop-color:rgb(0,222,255);stop-opacity:1"/><stop offset="0.5" style="stop-color:rgb(23,126,254);stop-opacity:1"/><stop offset="1" style="stop-color:rgb(0,45,171);stop-opacity:1"/></linearGradient>
        <linearGradient id="_Linear3" x1="0" y1="0" x2="1" y2="0" gradientUnits="userSpaceOnUse" gradientTransform="matrix(-318.512,318.512,-318.512,-318.512,1413.02,12714.5)"><stop offset="0" style="stop-color:rgb(0,222,255);stop-opacity:1"/><stop offset="0.5" style="stop-color:rgb(23,126,254);stop-opacity:1"/><stop offset="1" style="stop-color:rgb(0,45,171);stop-opacity:1"/></linearGradient>
        <linearGradient id="_Linear4" x1="0" y1="0" x2="1" y2="0" gradientUnits="userSpaceOnUse" gradientTransform="matrix(-318.512,318.512,-318.512,-318.512,1528.97,12487.2)"><stop offset="0" style="stop-color:rgb(0,222,255);stop-opacity:1"/><stop offset="0.5" style="stop-color:rgb(23,126,254);stop-opacity:1"/><stop offset="1" style="stop-color:rgb(0,45,171);stop-opacity:1"/></linearGradient>
        <linearGradient id="_Linear5" x1="0" y1="0" x2="1" y2="0" gradientUnits="userSpaceOnUse" gradientTransform="matrix(765.285,-412.241,3728.33,226.675,885.123,13569.9)"><stop offset="0" style="stop-color:rgb(213,162,36);stop-opacity:1"/><stop offset="0.5" style="stop-color:rgb(255,215,0);stop-opacity:1"/><stop offset="1" style="stop-color:rgb(245,248,114);stop-opacity:1"/></linearGradient>
        <linearGradient id="_Linear6" x1="0" y1="0" x2="1" y2="0" gradientUnits="userSpaceOnUse" gradientTransform="matrix(61.0994,-181.868,297.665,100.002,759.378,13244)"><stop offset="0" style="stop-color:rgb(213,162,36);stop-opacity:1"/><stop offset="0.5" style="stop-color:rgb(255,215,0);stop-opacity:1"/><stop offset="1" style="stop-color:rgb(245,248,114);stop-opacity:1"/></linearGradient>
        <linearGradient id="_Linear7" x1="0" y1="0" x2="1" y2="0" gradientUnits="userSpaceOnUse" gradientTransform="matrix(46.2633,-41.8291,41.8291,46.2633,547.756,12824.6)"><stop offset="0" style="stop-color:rgb(0,45,171);stop-opacity:1"/><stop offset="0.5" style="stop-color:rgb(23,126,254);stop-opacity:1"/><stop offset="1" style="stop-color:rgb(0,222,255);stop-opacity:1"/></linearGradient>
        <linearGradient id="_Linear8" x1="0" y1="0" x2="1" y2="0" gradientUnits="userSpaceOnUse" gradientTransform="matrix(49.684,-49.684,49.684,49.684,542.341,12831.7)"><stop offset="0" style="stop-color:rgb(0,45,171);stop-opacity:1"/><stop offset="0.5" style="stop-color:rgb(23,126,254);stop-opacity:1"/><stop offset="1" style="stop-color:rgb(0,222,255);stop-opacity:1"/></linearGradient>
        <linearGradient id="_Linear9" x1="0" y1="0" x2="1" y2="0" gradientUnits="userSpaceOnUse" gradientTransform="matrix(40.5963,-48.5612,48.5612,40.5963,543.562,12831.5)"><stop offset="0" style="stop-color:rgb(0,45,171);stop-opacity:1"/><stop offset="0.5" style="stop-color:rgb(23,126,254);stop-opacity:1"/><stop offset="1" style="stop-color:rgb(0,222,255);stop-opacity:1"/></linearGradient>
        <linearGradient id="_Linear10" x1="0" y1="0" x2="1" y2="0" gradientUnits="userSpaceOnUse" gradientTransform="matrix(49.684,-49.684,49.684,49.684,542.341,12831.7)"><stop offset="0" style="stop-color:rgb(0,45,171);stop-opacity:1"/><stop offset="0.5" style="stop-color:rgb(23,126,254);stop-opacity:1"/><stop offset="1" style="stop-color:rgb(0,222,255);stop-opacity:1"/></linearGradient>
        <linearGradient id="_Linear11" x1="0" y1="0" x2="1" y2="0" gradientUnits="userSpaceOnUse" gradientTransform="matrix(40.0808,-43.0231,43.0231,40.0808,551.806,12827.9)"><stop offset="0" style="stop-color:rgb(0,45,171);stop-opacity:1"/><stop offset="0.5" style="stop-color:rgb(23,126,254);stop-opacity:1"/><stop offset="1" style="stop-color:rgb(0,222,255);stop-opacity:1"/></linearGradient>
        <linearGradient id="_Linear12" x1="0" y1="0" x2="1" y2="0" gradientUnits="userSpaceOnUse" gradientTransform="matrix(49.684,-46.3765,46.3765,49.684,542.341,12831.7)"><stop offset="0" style="stop-color:rgb(0,45,171);stop-opacity:1"/><stop offset="0.5" style="stop-color:rgb(23,126,254);stop-opacity:1"/><stop offset="1" style="stop-color:rgb(0,222,255);stop-opacity:1"/></linearGradient>
        <linearGradient id="_Linear13" x1="0" y1="0" x2="1" y2="0" gradientUnits="userSpaceOnUse" gradientTransform="matrix(51.0661,-47.1023,47.1023,51.0661,540.959,12827.9)"><stop offset="0" style="stop-color:rgb(0,45,171);stop-opacity:1"/><stop offset="0.5" style="stop-color:rgb(23,126,254);stop-opacity:1"/><stop offset="1" style="stop-color:rgb(0,222,255);stop-opacity:1"/></linearGradient>
        <linearGradient id="_Linear14" x1="0" y1="0" x2="1" y2="0" gradientUnits="userSpaceOnUse" gradientTransform="matrix(49.684,-46.3765,46.3765,49.684,542.341,12828.4)"><stop offset="0" style="stop-color:rgb(0,45,171);stop-opacity:1"/><stop offset="0.5" style="stop-color:rgb(23,126,254);stop-opacity:1"/><stop offset="1" style="stop-color:rgb(0,222,255);stop-opacity:1"/></linearGradient>
        <linearGradient id="_Linear15" x1="0" y1="0" x2="1" y2="0" gradientUnits="userSpaceOnUse" gradientTransform="matrix(428.376,-187.892,9472.58,211.394,1117.94,13430.5)"><stop offset="0" style="stop-color:rgb(213,162,36);stop-opacity:1"/><stop offset="0.5" style="stop-color:rgb(255,215,0);stop-opacity:1"/><stop offset="1" style="stop-color:rgb(245,248,114);stop-opacity:1"/></linearGradient>
        <linearGradient id="_Linear16" x1="0" y1="0" x2="1" y2="0" gradientUnits="userSpaceOnUse" gradientTransform="matrix(275.273,0,0,97.3017,1001.4,13113.9)"><stop offset="0" style="stop-color:rgb(0,45,171);stop-opacity:1"/><stop offset="0.5" style="stop-color:rgb(23,126,254);stop-opacity:1"/><stop offset="1" style="stop-color:rgb(0,222,255);stop-opacity:1"/></linearGradient>
    </defs>
</svg>
